<svg xmlns="http://www.w3.org/2000/svg" viewBox="0 0 24 24" fill="#47A248">
  <path d="M12 1.5C9.8 1.5 8.2 2.8 8.2 5.5v.3c0 1.2.3 2.3.8 3.3.5 1 1.2 1.9 2 2.6.8.7 1.7 1.2 2.7 1.5.1 0 .2 0 .3.1v7.2c0 .3.2.5.5.5s.5-.2.5-.5v-7.2c.1 0 .2 0 .3-.1 1-.3 1.9-.8 2.7-1.5.8-.7 1.5-1.6 2-2.6.5-1 .8-2.1.8-3.3v-.3c0-2.7-1.6-4-3.8-4z"/>
  <path d="M12 13.5c-1.9 0-3.5-1.6-3.5-3.5S10.1 6.5 12 6.5s3.5 1.6 3.5 3.5-1.6 3.5-3.5 3.5z" fill="#4DB33D"/>
  <path d="M12 11.5c-.8 0-1.5-.7-1.5-1.5S11.2 8.5 12 8.5s1.5.7 1.5 1.5-.7 1.5-1.5 1.5z" fill="#6DB43D"/>
  <path d="M12 21.5c-.1 0-.2 0-.3-.1-.1-.1-.2-.2-.2-.4v-7.2c-.1 0-.2 0-.3-.1-1-.3-1.9-.8-2.7-1.5-.8-.7-1.5-1.6-2-2.6-.5-1-.8-2.1-.8-3.3v-.3c0-2.7 1.6-4 3.8-4s3.8 1.3 3.8 4v.3c0 1.2-.3 2.3-.8 3.3-.5 1-1.2 1.9-2 2.6-.8.7-1.7 1.2-2.7 1.5-.1 0-.2 0-.3.1v7.2c0 .2-.1.3-.2.4-.1.1-.2.1-.3.1z" fill="none" stroke="#2F7D32" stroke-width="0.3"/>
</svg>
