<svg xmlns="http://www.w3.org/2000/svg" viewBox="0 0 24 24" fill="#FA7343">
  <path d="M22 12c0 5.52-4.48 10-10 10S2 17.52 2 12 6.48 2 12 2s10 4.48 10 10z"/>
  <path d="M18.2 8.5c-.8-1.1-2.1-1.8-3.5-1.8-1.2 0-2.3.5-3.1 1.3-.3.3-.5.6-.7 1-.2-.4-.4-.7-.7-1-.8-.8-1.9-1.3-3.1-1.3-1.4 0-2.7.7-3.5 1.8-.4.6-.6 1.3-.6 2 0 2.2 1.8 4 4 4h.5c-.3.5-.5 1-.5 1.6 0 1.7 1.3 3 3 3s3-1.3 3-3c0-.6-.2-1.1-.5-1.6H15c2.2 0 4-1.8 4-4 0-.7-.2-1.4-.6-2z" fill="#fff"/>
  <path d="M12 16.5c-.8 0-1.5-.7-1.5-1.5s.7-1.5 1.5-1.5 1.5.7 1.5 1.5-.7 1.5-1.5 1.5z" fill="#FA7343"/>
</svg>
